<svg xmlns="http://www.w3.org/2000/svg" viewBox="0 0 40 46" fill="none">

  <defs>
    <filter id="dot-glow" x="-150%" y="-150%" width="400%" height="400%">
      <feGaussianBlur in="SourceGraphic" stdDeviation="1.8" result="blur"/>
      <feMerge>
        <feMergeNode in="blur"/>
        <feMergeNode in="SourceGraphic"/>
      </feMerge>
    </filter>
  </defs>

  <!-- Layer 1 — top -->
  <polygon points="20,10 29,13.5 20,17 11,13.5"     fill="#93c5fd"/>
  <polygon points="11,13.5 20,17 20,19 11,15.5"     fill="#60a5fa"/>
  <polygon points="29,13.5 20,17 20,19 29,15.5"     fill="#3b82f6"/>

  <!-- Layer 2 — middle -->
  <polygon points="20,19 31,23 20,27 9,23"          fill="#60a5fa"/>
  <polygon points="9,23 20,27 20,29 9,25"           fill="#3b82f6"/>
  <polygon points="31,23 20,27 20,29 31,25"         fill="#2563eb"/>

  <!-- Layer 3 — bottom -->
  <polygon points="20,29 36,33.5 20,38 4,33.5"      fill="#3b82f6"/>
  <polygon points="4,33.5 20,38 20,40 4,35.5"       fill="#2563eb"/>
  <polygon points="36,33.5 20,38 20,40 36,35.5"     fill="#1d4ed8"/>

  <!-- Apex dot -->
  <g filter="url(#dot-glow)">
    <circle cx="20" cy="7" r="2.5" fill="#4ade80"/>
  </g>

</svg>
