<svg xmlns="http://www.w3.org/2000/svg" viewBox="0 0 290 50" fill="none">
  <!--
    Soterra Labs — wordmark with apex dot (dark-mode variant)
    Text switched to light for dark backgrounds; pyramid and dot unchanged.
  -->

  <defs>
    <filter id="dot-glow" x="-150%" y="-150%" width="400%" height="400%">
      <feGaussianBlur in="SourceGraphic" stdDeviation="1.8" result="blur"/>
      <feMerge>
        <feMergeNode in="blur"/>
        <feMergeNode in="SourceGraphic"/>
      </feMerge>
    </filter>
  </defs>

  <!-- Layer 1 — top -->
  <polygon points="20,10 29,13.5 20,17 11,13.5"     fill="#93c5fd"/>
  <polygon points="11,13.5 20,17 20,19 11,15.5"     fill="#60a5fa"/>
  <polygon points="29,13.5 20,17 20,19 29,15.5"     fill="#3b82f6"/>

  <!-- Layer 2 — middle -->
  <polygon points="20,19 31,23 20,27 9,23"          fill="#60a5fa"/>
  <polygon points="9,23 20,27 20,29 9,25"           fill="#3b82f6"/>
  <polygon points="31,23 20,27 20,29 31,25"         fill="#2563eb"/>

  <!-- Layer 3 — bottom -->
  <polygon points="20,29 36,33.5 20,38 4,33.5"      fill="#3b82f6"/>
  <polygon points="4,33.5 20,38 20,40 4,35.5"       fill="#2563eb"/>
  <polygon points="36,33.5 20,38 20,40 36,35.5"     fill="#1d4ed8"/>

  <!-- APEX DOT -->
  <g filter="url(#dot-glow)">
    <circle cx="20" cy="7" r="2.5" fill="#4ade80"/>
  </g>

  <!-- WORDMARK -->
  <text x="42" y="30"
    font-family="system-ui, -apple-system, 'Segoe UI', sans-serif"
    font-size="22" font-weight="600" letter-spacing="2.5"
    fill="#f3f4f6">SOTERRA LABS</text>

  <line x1="238" y1="12" x2="238" y2="34" stroke="#4b5563" stroke-width="1"/>

  <text x="246" y="30"
    font-family="system-ui, -apple-system, 'Segoe UI', sans-serif"
    font-size="22" font-weight="600" letter-spacing="2.5"
    fill="#4ade80">AI</text>

</svg>
